<svg xmlns="http://www.w3.org/2000/svg" width="720" height="480" viewBox="0 0 720 480">
  <defs>
    <linearGradient id="bg" x1="0" y1="0" x2="1" y2="1">
      <stop offset="0" stop-color="#efe7ff"/>
      <stop offset="1" stop-color="#ffd6ea"/>
    </linearGradient>
    <linearGradient id="card" x1="0" y1="0" x2="1" y2="1">
      <stop offset="0" stop-color="#7b46ff"/>
      <stop offset="1" stop-color="#ff8ab5"/>
    </linearGradient>
  </defs>
  <rect width="720" height="480" rx="36" fill="url(#bg)"/>
  <rect x="64" y="64" width="592" height="120" rx="28" fill="#ffffff" opacity="0.85"/>
  <rect x="64" y="216" width="360" height="200" rx="28" fill="#ffffff" opacity="0.9"/>
  <rect x="448" y="216" width="208" height="200" rx="28" fill="#ffffff" opacity="0.9"/>
  <rect x="96" y="96" width="240" height="24" rx="12" fill="#2a1b3d" opacity="0.85"/>
  <rect x="96" y="136" width="160" height="16" rx="8" fill="#6b5b88" opacity="0.7"/>
  <rect x="96" y="256" width="200" height="16" rx="8" fill="#6b5b88" opacity="0.7"/>
  <rect x="96" y="284" width="260" height="16" rx="8" fill="#6b5b88" opacity="0.55"/>
  <rect x="96" y="320" width="180" height="40" rx="20" fill="url(#card)"/>
  <circle cx="552" cy="304" r="52" fill="url(#card)"/>
  <circle cx="552" cy="304" r="36" fill="#ffffff" opacity="0.9"/>
  <rect x="528" y="288" width="48" height="12" rx="6" fill="#2a1b3d" opacity="0.8"/>
  <rect x="532" y="310" width="40" height="12" rx="6" fill="#2a1b3d" opacity="0.6"/>
</svg>
