<svg width="64" height="64" viewBox="0 0 64 64" fill="none" xmlns="http://www.w3.org/2000/svg" role="img" aria-label="YouTube">
  <rect x="4" y="4" width="56" height="56" rx="14" fill="#FF0000"/>
  <path d="M44.5 26.2c-.3-1.8-1.4-2.9-3.2-3.2C38.2 22.5 32 22.5 32 22.5s-6.2 0-9.3.5c-1.8.3-2.9 1.4-3.2 3.2-.5 3-.5 7.3-.5 7.3s0 4.3.5 7.3c.3 1.8 1.4 2.9 3.2 3.2 3.1.5 9.3.5 9.3.5s6.2 0 9.3-.5c1.8-.3 2.9-1.4 3.2-3.2.5-3 .5-7.3.5-7.3s0-4.3-.5-7.3Z" fill="white"/>
  <path d="M29.5 36.2 36.8 32 29.5 27.8v8.4Z" fill="#FF0000"/>
</svg>
